<svg xmlns="http://www.w3.org/2000/svg" viewBox="0 0 500 500" width="500" height="500" preserveAspectRatio="xMidYMid meet" style="width: 100%; height: 100%; transform: translate3d(0px, 0px, 0px); content-visibility: visible;"><defs><clipPath id="__lottie_element_1339"><rect width="500" height="500" x="0" y="0"></rect></clipPath></defs><g clip-path="url(#__lottie_element_1339)"><g transform="matrix(1,0,0,1,202.802001953125,306.81201171875)" opacity="1" style="display: block;"><g opacity="1" transform="matrix(1,0,0,1,0,0)"><path fill="rgb(255,198,56)" fill-opacity="1" d=" M101.15299987792969,28.738000869750977 C100.34300231933594,29.54800033569336 99.19300079345703,29.968000411987305 97.7229995727539,30.027999877929688 C97.7229995727539,30.027999877929688 -92.96700286865234,101.98799896240234 -92.96700286865234,101.98799896240234 C-98.60700225830078,104.11799621582031 -104.11699676513672,98.60800170898438 -101.98699951171875,92.96800231933594 C-101.98699951171875,92.96800231933594 -30.03700065612793,-97.7020034790039 -30.03700065612793,-97.7020034790039 C-29.976999282836914,-99.18199920654297 -29.55699920654297,-100.34200286865234 -28.746999740600586,-101.1520004272461 C-21.55699920654297,-108.34200286865234 13.352999687194824,-85.09200286865234 49.2130012512207,-49.22200012207031 C85.08300018310547,-13.35200023651123 108.33300018310547,21.558000564575195 101.15299987792969,28.738000869750977z"></path></g></g><g transform="matrix(1,0,0,1,202.802001953125,306.8110046386719)" opacity="0.5" style="mix-blend-mode: multiply; display: block;"><g opacity="1" transform="matrix(1,0,0,1,0,0)" style="mix-blend-mode: multiply;"><path fill="rgb(255,198,56)" fill-opacity="1" d=" M101.15299987792969,28.73900032043457 C100.34300231933594,29.548999786376953 99.19300079345703,29.9689998626709 97.7229995727539,30.02899932861328 C86.12300109863281,30.548999786376953 55.042999267578125,8.659000396728516 23.19300079345703,-23.19099998474121 C3.9830000400543213,-42.4010009765625 -11.616999626159668,-61.340999603271484 -20.847000122070312,-75.89099884033203 C-20.847000122070312,-75.89099884033203 -84.56700134277344,92.96900177001953 -84.56700134277344,92.96900177001953 C-85.33699798583984,95.00900268554688 -85.10700225830078,97.03900146484375 -84.22699737548828,98.68900299072266 C-84.22699737548828,98.68900299072266 -92.96700286865234,101.98899841308594 -92.96700286865234,101.98899841308594 C-98.60700225830078,104.11900329589844 -104.11699676513672,98.60900115966797 -101.98699951171875,92.96900177001953 C-101.98699951171875,92.96900177001953 -30.03700065612793,-97.70099639892578 -30.03700065612793,-97.70099639892578 C-29.976999282836914,-99.18099975585938 -29.55699920654297,-100.34100341796875 -28.746999740600586,-101.1510009765625 C-28.636999130249023,-101.26100158691406 -28.517000198364258,-101.36100006103516 -28.39699935913086,-101.46099853515625 C-28.14699935913086,-101.6510009765625 -27.87700080871582,-101.81099700927734 -27.586999893188477,-101.95099639892578 C-27.437000274658203,-102.02100372314453 -27.277000427246094,-102.08100128173828 -27.117000579833984,-102.13099670410156 C-26.187000274658203,-102.45099639892578 -25.05699920654297,-102.53099822998047 -23.73699951171875,-102.39099884033203 C-23.32699966430664,-102.35099792480469 -22.89699935913086,-102.29100036621094 -22.457000732421875,-102.20099639892578 C-22.017000198364258,-102.11100006103516 -21.547000885009766,-102.01100158691406 -21.07699966430664,-101.89099884033203 C-20.78700065612793,-101.82099914550781 -20.506999969482422,-101.74099731445312 -20.207000732421875,-101.6510009765625 C-19.506999969482422,-101.44100189208984 -18.777000427246094,-101.19100189208984 -18.006999969482422,-100.9010009765625 C-17.156999588012695,-100.59100341796875 -16.256999969482422,-100.22100067138672 -15.32699966430664,-99.79100036621094 C-14.836999893188477,-99.58100128173828 -14.336999893188477,-99.34100341796875 -13.817000389099121,-99.09100341796875 C-13.397000312805176,-98.9010009765625 -12.97700023651123,-98.69100189208984 -12.54699993133545,-98.47100067138672 C2.6029999256134033,-90.83100128173828 25.702999114990234,-72.74099731445312 49.2130012512207,-49.22100067138672 C85.08300018310547,-13.35099983215332 108.33300018310547,21.55900001525879 101.15299987792969,28.73900032043457z"></path></g></g><g transform="matrix(1,0,0,1,239.66200256347656,270.80499267578125)" opacity="1" style="display: block;"><g opacity="1" transform="matrix(1,0,0,1,0,0)"><path stroke-linecap="round" stroke-linejoin="round" fill-opacity="0" stroke="rgb(18,19,48)" stroke-opacity="1" stroke-width="7" d=" M-65.5979995727539,-64.29399871826172 C-58.4109992980957,-71.48100280761719 -23.506999969482422,-48.23099899291992 12.362000465393066,-12.362000465393066 C48.23099899291992,23.506999969482422 71.48100280761719,58.4109992980957 64.29399871826172,65.5979995727539"></path></g></g><g transform="matrix(1,0,0,1,129.36500549316406,159.04100036621094)" opacity="1" style="display: block;"><g opacity="1" transform="matrix(1,0,0,1,0,0)"><path stroke-linecap="round" stroke-linejoin="round" fill-opacity="0" stroke="rgb(241,138,168)" stroke-opacity="1" stroke-width="7" d=" M85.82099914550781,109.15699768066406 C110.58499908447266,59.676998138427734 78.71800231933594,-63.327999114990234 -11.373000144958496,-38.49300003051758 C-11.79699993133545,-38.375999450683594 -12.220000267028809,-38.262001037597656 -12.642000198364258,-38.14899826049805"></path></g></g><g transform="matrix(1,0,0,1,306.5820007324219,355.23699951171875)" opacity="1" style="display: block;"><g opacity="1" transform="matrix(1,0,0,1,0,0)"><path stroke-linecap="round" stroke-linejoin="round" fill-opacity="0" stroke="rgb(241,138,168)" stroke-opacity="1" stroke-width="7" d=" M-61.893001556396484,-57.25 C-61.4109992980957,-57.60900115966797 -60.930999755859375,-57.9640007019043 -60.452999114990234,-58.31399917602539 C-29.29199981689453,-81.14700317382812 49.85200119018555,-80.23999786376953 59.220001220703125,-17.28499984741211"></path></g></g><g transform="matrix(1,0,0,1,277.86199951171875,149.02099609375)" opacity="1" style="display: block;"><g opacity="1" transform="matrix(1,0,0,1,0,0)"><path stroke-linecap="round" stroke-linejoin="round" fill-opacity="0" stroke="rgb(237,170,102)" stroke-opacity="1" stroke-width="7" d=" M10.545999526977539,-42.88399887084961 C9.946000099182129,-29.229999542236328 -13.520999908447266,-28.038999557495117 -12.99899959564209,-13.77400016784668 C-12.46500015258789,0.8339999914169312 12.149999618530273,-0.06599999964237213 12.684000015258789,14.541999816894531 C13.218000411987305,29.149999618530273 -11.39799976348877,30.048999786376953 -10.86400032043457,44.65700149536133 C-10.86400032043457,44.65700149536133 -10.86400032043457,44.65700149536133 -10.86400032043457,44.65700149536133 C-10.845999717712402,45.14500045776367 -10.800999641418457,45.61399841308594 -10.730999946594238,46.06700134277344"></path></g></g><g transform="matrix(0.7193397879600525,0.6946583986282349,-0.6946583986282349,0.7193397879600525,332.86199951171875,210.02099609375)" opacity="1" style="display: block;"><g opacity="1" transform="matrix(1,0,0,1,0,0)"><path stroke-linecap="round" stroke-linejoin="round" fill-opacity="0" stroke="rgb(237,170,102)" stroke-opacity="1" stroke-width="7" d=" M10.545999526977539,-42.88399887084961 C9.946000099182129,-29.229999542236328 -13.520999908447266,-28.038999557495117 -12.99899959564209,-13.77400016784668 C-12.46500015258789,0.8339999914169312 12.149999618530273,-0.06599999964237213 12.684000015258789,14.541999816894531 C13.218000411987305,29.149999618530273 -11.39799976348877,30.048999786376953 -10.86400032043457,44.65700149536133 C-10.86400032043457,44.65700149536133 -10.86400032043457,44.65700149536133 -10.86400032043457,44.65700149536133 C-10.845999717712402,45.14500045776367 -10.800999641418457,45.61399841308594 -10.730999946594238,46.06700134277344"></path></g></g><g transform="matrix(1,0,0,1,202.15200805664062,308.31500244140625)" opacity="1" style="display: block;"><g opacity="1" transform="matrix(1,0,0,1,0,0)"><path stroke-linecap="round" stroke-linejoin="round" fill-opacity="0" stroke="rgb(18,19,48)" stroke-opacity="1" stroke-width="7" d=" M101.80400085449219,28.08799934387207 C94.61699676513672,35.275001525878906 59.7140007019043,12.02400016784668 23.844999313354492,-23.844999313354492 C-12.02400016784668,-59.7140007019043 -35.275001525878906,-94.61699676513672 -28.08799934387207,-101.80400085449219 C-28.08799934387207,-101.80400085449219 -29.37700080871582,-98.3740005493164 -29.37700080871582,-98.3740005493164 C-29.37700080871582,-98.3740005493164 -101.33699798583984,92.31099700927734 -101.33699798583984,92.31099700927734 C-103.46499633789062,97.94999694824219 -97.94999694824219,103.46499633789062 -92.31099700927734,101.33699798583984 C-92.31099700927734,101.33699798583984 98.3740005493164,29.37700080871582 98.3740005493164,29.37700080871582 C98.3740005493164,29.37700080871582 101.80400085449219,28.08799934387207 101.80400085449219,28.08799934387207z"></path></g></g><g transform="matrix(1,0,0,1,224.8249969482422,101.6989974975586)" opacity="1" style="display: block;"><g opacity="1" transform="matrix(1,0,0,1,0,0)"><path stroke-linecap="round" stroke-linejoin="round" fill-opacity="0" stroke="rgb(237,170,102)" stroke-opacity="1" stroke-width="7" d=" M-3.6389999389648438,6.11899995803833 C-3.6389999389648438,6.11899995803833 3.6389999389648438,-6.11899995803833 3.6389999389648438,-6.11899995803833"></path></g></g><g transform="matrix(1,0,0,1,356.3389892578125,395.9360046386719)" opacity="1" style="display: block;"><g opacity="1" transform="matrix(1,0,0,1,0,0)"><path stroke-linecap="round" stroke-linejoin="round" fill-opacity="0" stroke="rgb(74,179,252)" stroke-opacity="1" stroke-width="7" d=" M7.6479997634887695,-4.640999794006348 C7.6479997634887695,-4.640999794006348 -7.6479997634887695,4.640999794006348 -7.6479997634887695,4.640999794006348"></path></g></g><g transform="matrix(1,0,0,1,412.48101806640625,324.4730224609375)" opacity="1" style="display: block;"><g opacity="1" transform="matrix(1,0,0,1,0,0)"><path stroke-linecap="round" stroke-linejoin="round" fill-opacity="0" stroke="rgb(237,170,102)" stroke-opacity="1" stroke-width="7" d=" M-3.6389999389648438,6.11899995803833 C-3.6389999389648438,6.11899995803833 3.6389999389648438,-6.11899995803833 3.6389999389648438,-6.11899995803833"></path></g></g><g transform="matrix(1,0,0,1,104.91600036621094,263.9230041503906)" opacity="1" style="display: block;"><g opacity="1" transform="matrix(1,0,0,1,0,0)"><path stroke-linecap="round" stroke-linejoin="round" fill-opacity="0" stroke="rgb(74,179,252)" stroke-opacity="1" stroke-width="7" d=" M-5.033999919891357,5.033999919891357 C-5.033999919891357,5.033999919891357 5.033999919891357,-5.033999919891357 5.033999919891357,-5.033999919891357"></path></g></g><g transform="matrix(1,0,0,1,376.08001708984375,116.30000305175781)" opacity="1" style="display: block;"><g opacity="1" transform="matrix(1,0,0,1,0,0)"><path stroke-linecap="round" stroke-linejoin="round" fill-opacity="0" stroke="rgb(74,179,252)" stroke-opacity="1" stroke-width="7" d=" M5.033999919891357,5.033999919891357 C5.033999919891357,5.033999919891357 -5.033999919891357,-5.033999919891357 -5.033999919891357,-5.033999919891357"></path></g></g><g transform="matrix(1,0,0,1,254.3560028076172,393.97100830078125)" opacity="1" style="display: block;"><g opacity="1" transform="matrix(1,0,0,1,0,0)"><path stroke-linecap="round" stroke-linejoin="round" fill-opacity="0" stroke="rgb(237,170,102)" stroke-opacity="1" stroke-width="7" d=" M2.569000005722046,6.638999938964844 C2.569000005722046,6.638999938964844 -2.569000005722046,-6.638999938964844 -2.569000005722046,-6.638999938964844"></path></g></g><g transform="matrix(1,0,0,1,133.08900451660156,177.6699981689453)" opacity="1" style="display: block;"><g opacity="1" transform="matrix(1,0,0,1,0,0)"><path stroke-linecap="round" stroke-linejoin="round" fill-opacity="0" stroke="rgb(255,198,56)" stroke-opacity="1" stroke-width="7" d=" M-5.395999908447266,-4.64300012588501 C-5.395999908447266,-4.64300012588501 5.395999908447266,4.64300012588501 5.395999908447266,4.64300012588501"></path></g></g><g transform="matrix(1,0,0,1,390.8170166015625,243.18600463867188)" opacity="1" style="display: block;"><g opacity="1" transform="matrix(1,0,0,1,0,0)"><path stroke-linecap="round" stroke-linejoin="round" fill-opacity="0" stroke="rgb(255,198,56)" stroke-opacity="1" stroke-width="7" d=" M1.9290000200271606,6.8520002365112305 C1.9290000200271606,6.8520002365112305 -1.9290000200271606,-6.8520002365112305 -1.9290000200271606,-6.8520002365112305"></path></g></g><g style="display: none;"><g><path stroke-linecap="round" stroke-linejoin="round" fill-opacity="0"></path></g></g><g style="display: none;"><g><path stroke-linecap="round" stroke-linejoin="round" fill-opacity="0"></path></g></g><g style="display: none;"><g><path stroke-linecap="round" stroke-linejoin="round" fill-opacity="0"></path></g></g><g style="display: none;"><g><path stroke-linecap="round" stroke-linejoin="round" fill-opacity="0"></path></g></g><g style="display: none;"><g><path stroke-linecap="round" stroke-linejoin="round" fill-opacity="0"></path></g></g><g style="display: none;"><g><path stroke-linecap="round" stroke-linejoin="round" fill-opacity="0"></path></g></g><g style="display: none;"><g><path stroke-linecap="round" stroke-linejoin="round" fill-opacity="0"></path></g></g><g style="display: none;"><g><path stroke-linecap="round" stroke-linejoin="round" fill-opacity="0"></path></g></g><g class="com" style="display: none;"><g><path></path></g><g><path></path></g><g><path></path></g><g><path></path></g><g><path></path></g><g><path></path></g><g><path></path></g><g><path></path></g><g><path></path></g><g><path></path></g><g><path></path></g><g><path></path></g></g></g></svg>